<svg xmlns="http://www.w3.org/2000/svg" width="512" height="512" viewBox="0 0 512 512" role="img" aria-label="MultiEnv">
  <defs>
    <linearGradient id="bg" x1="70" y1="40" x2="442" y2="476" gradientUnits="userSpaceOnUse">
      <stop stop-color="#2563eb"/>
      <stop offset=".56" stop-color="#0b1f3a"/>
      <stop offset="1" stop-color="#2563eb"/>
    </linearGradient>
    <radialGradient id="glow" cx="72%" cy="23%" r="68%">
      <stop stop-color="#22c55e" stop-opacity=".72"/>
      <stop offset=".58" stop-color="#f59e0b" stop-opacity=".24"/>
      <stop offset="1" stop-color="#0b1f3a" stop-opacity="0"/>
    </radialGradient>
    <filter id="shadow" x="-20%" y="-20%" width="140%" height="140%">
      <feDropShadow dx="0" dy="18" stdDeviation="22" flood-color="#0b1f3a" flood-opacity=".34"/>
    </filter>
  </defs>
  <rect width="512" height="512" rx="94" fill="url(#bg)"/>
  <rect width="512" height="512" rx="94" fill="url(#glow)"/>
  <path d="M46 342C154 278 238 414 466 292" fill="none" stroke="#eef6ff" stroke-opacity=".1" stroke-width="26" stroke-linecap="round"/>
  <g filter="url(#shadow)">
        <g transform="translate(-20 -20) scale(1.08)">
          <rect x="120" y="118" width="272" height="82" rx="28" fill="#eef6ff"/>
          <rect x="120" y="215" width="272" height="82" rx="28" fill="#eef6ff" opacity=".86"/>
          <rect x="120" y="312" width="272" height="82" rx="28" fill="#eef6ff" opacity=".72"/>
          <circle cx="170" cy="159" r="22" fill="#22c55e"/><circle cx="170" cy="256" r="22" fill="#f59e0b"/><circle cx="170" cy="353" r="22" fill="#2563eb"/>
          <path d="M218 159h116M218 256h116M218 353h116" stroke="#0b1f3a" stroke-width="18" stroke-linecap="round"/>
          <path d="M356 159c42 36 42 158 0 194" fill="none" stroke="#22c55e" stroke-width="16" stroke-linecap="round"/>
        </g></g>
</svg>
